<?xml version="1.0" standalone="no"?>
<!DOCTYPE svg PUBLIC "-//W3C//DTD SVG 20010904//EN"
 "http://www.w3.org/TR/2001/REC-SVG-20010904/DTD/svg10.dtd">
<svg version="1.0" xmlns="http://www.w3.org/2000/svg"
 width="126.000000pt" height="105.000000pt" viewBox="0 0 126.000000 105.000000"
 preserveAspectRatio="xMidYMid meet">

<g transform="translate(0.000000,105.000000) scale(0.100000,-0.100000)"
fill="#000000" stroke="none">
<path d="M442 1039 c-130 -15 -229 -48 -304 -100 -18 -13 -28 -32 -33 -59 -4
-26 -24 -61 -57 -102 -46 -59 -50 -66 -46 -108 3 -25 20 -79 38 -120 33 -74
33 -75 26 -190 -3 -63 -9 -142 -12 -175 -5 -52 -3 -64 18 -95 62 -91 167 -107
395 -61 144 29 162 35 322 115 245 121 282 151 329 258 11 26 41 69 65 95 56
61 67 82 67 133 0 52 -17 84 -75 140 -30 28 -60 71 -80 115 -18 39 -51 88 -73
111 l-41 41 -122 6 c-154 9 -323 7 -417 -4z m550 -61 c28 -22 91 -121 126
-200 2 -5 -14 -9 -35 -9 -37 -2 -37 -2 9 -8 26 -4 57 -16 69 -26 13 -12 19
-14 14 -5 -8 13 -7 13 9 1 39 -32 57 -105 38 -153 -4 -9 -28 -39 -54 -66 -26
-27 -58 -73 -71 -103 -16 -36 -41 -70 -73 -97 -60 -52 -361 -202 -424 -212
-25 -4 -81 -17 -125 -29 -169 -45 -304 -37 -372 22 l-36 32 9 115 c16 210 12
259 -24 323 -41 73 -42 120 -4 173 16 21 36 45 45 52 8 7 18 31 22 52 13 75
114 134 230 133 42 0 62 2 50 7 -13 5 12 10 70 14 50 4 95 9 100 11 6 2 96 3
201 2 190 -2 191 -2 226 -29z"/>
<path d="M653 993 c15 -2 37 -2 50 0 12 2 0 4 -28 4 -27 0 -38 -2 -22 -4z"/>
<path d="M495 980 c-48 -7 -48 -7 -10 -8 22 0 60 3 85 7 40 8 41 8 10 8 -19 0
-57 -3 -85 -7z"/>
<path d="M748 983 c7 -3 16 -2 19 1 4 3 -2 6 -13 5 -11 0 -14 -3 -6 -6z"/>
<path d="M830 953 c30 -15 69 -36 85 -47 23 -14 25 -14 10 -1 -30 25 -97 62
-125 70 -14 3 0 -7 30 -22z"/>
<path d="M617 963 c18 -2 50 -2 70 0 21 2 7 4 -32 4 -38 0 -55 -2 -38 -4z"/>
<path d="M288 953 c12 -2 30 -2 40 0 9 3 -1 5 -23 4 -22 0 -30 -2 -17 -4z"/>
<path d="M440 950 l-85 -6 85 -1 c47 0 99 3 115 7 l30 8 -30 -1 c-16 0 -68 -4
-115 -7z"/>
<path d="M775 946 c22 -7 60 -23 85 -35 42 -20 43 -21 20 -2 -27 22 -103 51
-129 50 -9 0 2 -6 24 -13z"/>
<path d="M678 923 c12 -2 32 -2 45 0 12 2 2 4 -23 4 -25 0 -35 -2 -22 -4z"/>
<path d="M788 905 c23 -7 50 -19 59 -27 14 -11 16 -11 9 1 -10 16 -68 41 -93
40 -10 0 1 -6 25 -14z"/>
<path d="M343 903 c15 -2 37 -2 50 0 12 2 0 4 -28 4 -27 0 -38 -2 -22 -4z"/>
<path d="M610 889 c-7 -11 -10 -23 -7 -25 2 -2 9 7 15 21 14 30 7 33 -8 4z"/>
<path d="M428 893 c7 -3 16 -2 19 1 4 3 -2 6 -13 5 -11 0 -14 -3 -6 -6z"/>
<path d="M260 880 c-8 -5 -12 -12 -9 -15 4 -3 12 1 19 10 14 17 11 19 -10 5z"/>
<path d="M420 861 c0 -6 4 -13 10 -16 6 -3 7 1 4 9 -7 18 -14 21 -14 7z"/>
<path d="M671 836 c-78 -26 -111 -75 -73 -109 15 -14 23 -13 92 10 68 23 80
25 130 14 63 -13 79 -4 62 33 -23 52 -130 78 -211 52z m39 -46 c0 -13 -7 -20
-19 -20 -11 0 -23 -4 -26 -10 -8 -12 -45 -13 -45 -1 0 13 25 31 57 41 15 4 29
9 31 9 1 1 2 -8 2 -19z"/>
<path d="M275 798 c-55 -31 -40 -45 59 -58 90 -11 96 -14 96 -43 0 -23 -51
-73 -121 -117 -19 -12 -25 -19 -14 -14 42 16 89 5 113 -26 25 -32 50 -38 70
-18 19 19 14 29 -13 22 -33 -8 -79 39 -65 66 6 10 19 22 30 25 15 5 20 15 20
44 0 31 5 40 26 49 27 13 24 35 -4 30 -10 -1 -29 6 -43 15 -52 35 -118 45
-154 25z m55 -18 c0 -5 -12 -10 -27 -10 -22 0 -25 2 -13 10 20 13 40 13 40 0z"/>
<path d="M933 776 c14 -11 15 -15 5 -20 -7 -3 -5 -5 5 -3 25 3 23 20 -5 29
-21 7 -22 7 -5 -6z"/>
<path d="M188 763 c7 -3 16 -2 19 1 4 3 -2 6 -13 5 -11 0 -14 -3 -6 -6z"/>
<path d="M77 732 c-15 -15 -27 -32 -27 -37 0 -5 7 1 16 14 9 13 31 29 48 37
24 10 26 13 10 14 -11 0 -32 -13 -47 -28z"/>
<path d="M952 725 c-66 -31 -114 -32 -154 -4 -31 22 -44 20 -34 -6 18 -48 141
-56 215 -14 29 16 48 20 74 15 61 -11 80 -52 63 -136 l-7 -35 20 24 c45 51 16
137 -55 167 -46 19 -61 18 -122 -11z"/>
<path d="M96 707 c-13 -9 -16 -22 -13 -47 l4 -35 1 36 c2 26 8 39 25 47 12 6
17 11 11 11 -5 1 -18 -5 -28 -12z"/>
<path d="M120 691 l-25 -20 57 6 c48 5 59 3 64 -11 8 -20 76 -22 93 -3 15 18
3 29 -19 17 -12 -7 -27 -5 -46 4 -54 27 -98 29 -124 7z"/>
<path d="M43 645 c0 -22 2 -30 4 -17 2 12 2 30 0 40 -3 9 -5 -1 -4 -23z"/>
<path d="M990 661 c-19 -24 -190 -93 -312 -127 -64 -17 -129 -27 -208 -31
-101 -4 -122 -2 -171 16 -73 28 -99 53 -99 96 0 48 -11 44 -35 -13 -15 -35
-20 -69 -20 -137 0 -161 37 -199 215 -216 122 -13 283 1 363 31 88 33 171 92
218 157 24 32 52 68 63 81 12 13 21 29 22 35 0 7 2 18 2 25 1 7 16 12 35 12
l32 1 -37 30 c-21 17 -38 37 -38 45 0 19 -12 17 -30 -5z m16 -66 c-7 -27 -59
-65 -88 -65 -12 0 -18 8 -18 23 0 18 12 30 52 50 28 15 54 25 56 22 2 -2 1
-16 -2 -30z m-136 -48 c0 -23 -32 -44 -93 -62 -62 -18 -82 -12 -75 21 2 12 22
23 63 34 76 22 105 24 105 7z m-650 -29 c0 -56 -23 -88 -36 -53 -7 18 14 75
27 75 5 0 9 -10 9 -22z m78 -33 c1 -1 -3 -14 -9 -29 -17 -37 -43 -30 -47 13
-3 32 -2 33 25 26 15 -3 29 -8 31 -10z m392 -14 c0 -26 -4 -29 -57 -40 -75
-15 -73 -15 -73 19 0 24 5 31 28 36 15 3 32 7 37 9 6 2 22 4 38 4 23 1 27 -3
27 -28z m270 22 c0 -18 -48 -66 -58 -59 -17 11 -15 23 10 46 22 20 48 27 48
13z m-581 -19 c25 -5 31 -12 31 -31 0 -24 -2 -25 -47 -18 -60 9 -62 10 -56 35
6 21 21 24 72 14z m139 -21 c-3 -24 -8 -28 -40 -31 -34 -3 -38 -1 -38 21 0 31
7 37 47 37 32 0 34 -2 31 -27z m346 -25 c4 -21 2 -35 -6 -39 -7 -4 -28 -19
-47 -33 -43 -32 -45 -32 -59 -1 -21 46 -15 59 41 81 28 12 55 22 58 23 4 0 9
-13 13 -31z m-146 -69 c7 -23 11 -43 8 -46 -10 -10 -119 -34 -132 -29 -9 3
-14 20 -14 43 0 37 1 39 53 54 73 23 71 24 85 -22z m-453 -40 c15 -28 15 -29
-8 -29 -20 0 -23 5 -23 34 0 39 9 38 31 -5z m287 -3 c3 -49 -4 -56 -68 -56
-27 0 -32 4 -38 31 -10 53 -8 58 32 62 20 2 44 4 53 5 13 2 18 -8 21 -42z
m-228 8 c18 -46 -12 -54 -32 -8 -10 21 -9 24 7 24 10 0 22 -7 25 -16z m93 4
c15 -20 22 -57 12 -64 -19 -11 -48 8 -58 38 -6 17 -11 33 -11 34 0 10 49 2 57
-8z"/>
<path d="M607 643 c-13 -12 -7 -23 13 -23 26 0 36 -25 20 -45 -15 -18 -7 -30
13 -22 8 3 17 18 20 34 5 27 9 29 39 25 18 -2 31 -2 28 1 -3 3 -18 7 -35 10
-16 2 -43 9 -58 15 -33 14 -32 14 -40 5z"/>
<path d="M758 613 c6 -2 18 -2 25 0 6 3 1 5 -13 5 -14 0 -19 -2 -12 -5z"/>
<path d="M537 599 c-9 -5 -15 -14 -12 -19 8 -12 88 -6 93 8 2 7 -2 12 -10 12
-7 0 -22 2 -33 5 -11 3 -28 0 -38 -6z"/>
<path d="M1181 597 c-1 -10 -13 -30 -28 -44 -23 -21 -24 -24 -6 -14 26 13 46
47 39 64 -2 7 -5 4 -5 -6z"/>
<path d="M50 592 c0 -5 16 -16 35 -25 19 -9 35 -15 35 -13 0 2 -16 13 -35 25
-19 11 -35 17 -35 13z"/>
<path d="M885 268 c-33 -18 -98 -47 -145 -65 -101 -39 -92 -44 12 -7 93 34
232 104 203 103 -5 0 -37 -14 -70 -31z"/>
<path d="M780 250 c-41 -21 -70 -39 -65 -39 6 0 44 18 85 39 41 21 71 39 65
39 -5 0 -44 -18 -85 -39z"/>
<path d="M391 209 c15 -6 52 -6 95 0 l69 8 -95 1 c-70 0 -88 -2 -69 -9z"/>
<path d="M210 205 c0 -12 50 -34 90 -39 l45 -6 -49 15 c-27 7 -53 18 -59 24
-11 11 -27 15 -27 6z"/>
<path d="M670 200 c-8 -5 -10 -10 -5 -10 6 0 17 5 25 10 8 5 11 10 5 10 -5 0
-17 -5 -25 -10z"/>
<path d="M595 181 l-30 -7 39 -7 c22 -3 42 -4 45 -2 2 3 -4 5 -15 6 -18 0 -18
1 1 9 24 10 3 11 -40 1z"/>
<path d="M156 169 c13 -22 71 -41 137 -44 l72 -4 -68 9 c-37 5 -86 17 -107 28
-22 11 -37 15 -34 11z"/>
<path d="M588 153 c7 -3 16 -2 19 1 4 3 -2 6 -13 5 -11 0 -14 -3 -6 -6z"/>
<path d="M538 143 c7 -3 16 -2 19 1 4 3 -2 6 -13 5 -11 0 -14 -3 -6 -6z"/>
</g>
</svg>
